<svg viewBox="0 0 72 72" xmlns="http://www.w3.org/2000/svg"><path d="m41.9529 27.0468c0 1.1045-.8965 2-2 2s-2-.8955-2-2c0-1.1035.8965-2 2-2s2 .8965 2 2"/><path d="m33.9529 27.0468c0 1.1045-.8965 2-2 2s-2-.8955-2-2c0-1.1035.8965-2 2-2s2 .8965 2 2"/><path d="m35.9527 37.0492c-1.1518 0-2.3037-.2861-3.4472-.8579-.4942-.2471-.6944-.8476-.4473-1.3418.2466-.4936.8462-.6943 1.3418-.4472 1.7178.8593 3.3877.8593 5.1055 0 .4946-.2471 1.0947-.0464 1.3418.4472.247.4942.0468 1.0947-.4473 1.3418-1.1436.5718-2.2954.8579-3.4473.8579z"/><g style="fill:none;stroke:#000;stroke-linecap:round;stroke-linejoin:round;stroke-miterlimit:10;stroke-width:2"><path d="m47.2315 26.9427c.0395.4816.0598.9703.0598 1.4649 0 7.8277-5.0765 14.1732-11.3386 14.1732s-11.3386-6.3455-11.3386-14.1732l-.1242-1.4575"/><path d="m31.4607 13.9422c-5.8264-2.362-9.8466 6.3904-6.9708 13.3079 1.8952-.7356 4.7204-7.028 4.7204-7.028s6.0436 4.0118 4.6066.9647c0 0 6.0003 3.9966 5.125.5757 0 0 5.42 5.8571 5.8039.4876 0 0 .5486 5.2658 2.3966 5 5.2618-10.6729-12.2535-22.0685-15.6817-13.3079z"/><circle cx="24.6141" cy="54.7818" r="3"/><path d="m24.6141 51.7818s-1.3273-5.4596 2.2791-9.2021"/><path d="m49.9156 45.9787c6.2065 3.1183 4.8522 11.9209 4.8522 11.9209"/><path d="m28.5935 45.9903c2.4969 1.5232 4.7846 2.5066 7.2993 2.5014h-.125c2.3664.0049 4.5318-.8657 6.8597-2.2377"/><path d="m16.8928 57.8996s-1.4346-9.3247 5.4161-12.1794"/><path d="m44.4576 42.5797c1.5847 1.6445 2.4274 5.3192 2.4274 5.3192-3.4246.1134-3.3095 3.8829-3.3095 3.8829s-.7793 5.5625 1.6548 5.4316l-.1645 1.6162.2835-2.963"/><path d="m47.2913 47.8989c3.4246.1134 3.3096 3.8829 3.3096 3.8829s.7793 5.5625-1.6549 5.4316l.1645 1.6162-.2835-2.963"/><path d="m29.9529 46.7668 5.6576 11.1328"/><path d="m41.2681 46.9968-5.6576 10.9028"/></g></svg>