<svg width="30" height="30" viewBox="0 0 30 30" fill="none" xmlns="http://www.w3.org/2000/svg">
<g clip-path="url(#clip0_199_218)">
<path d="M15.0354 0.000350952C23.2999 0.000637863 29.9995 6.57739 29.9995 14.6902C29.9995 18.7466 28.3246 22.419 25.6167 25.0772C22.9019 27.7773 19.1321 29.4497 14.9646 29.4497C6.69986 29.4497 0 22.8728 0 14.7599C0 10.6688 1.70368 6.96827 4.45254 4.30476L4.45415 4.30321C7.14733 1.64521 10.8756 0.000350952 14.9953 0.000350952H15.0377H15.0354ZM15.0354 28.0446C22.5488 28.0446 28.6396 22.0657 28.6396 14.6902C28.6396 7.31472 22.5488 1.33578 15.0354 1.33578C7.52209 1.33578 1.43128 7.31472 1.43128 14.6902C1.43975 22.0623 7.5263 28.0362 15.0354 28.0446ZM12 8L23 14.6902L12 21V8ZM20.5 14.6902L13.5 10.5V19L20.5 14.6902Z" fill="#565656"/>
</g>
<defs>
<clipPath id="clip0_199_218">
<rect width="30" height="30" fill="white"/>
</clipPath>
</defs>
</svg>
