<svg fill="none" height="20" viewBox="0 0 20 20" width="20" xmlns="http://www.w3.org/2000/svg"><g fill="#212121"><path d="m7.5 7c-.27614 0-.5.22386-.5.5s.22386.5.5.5h5c.2761 0 .5-.22386.5-.5s-.2239-.5-.5-.5z"/><path d="m7 10.5c0-.2761.22386-.5.5-.5h5c.2761 0 .5.2239.5.5s-.2239.5-.5.5h-5c-.27614 0-.5-.2239-.5-.5z"/><path d="m7.5 13c-.27614 0-.5.2239-.5.5s.22386.5.5.5h2c.27614 0 .5-.2239.5-.5s-.22386-.5-.5-.5z"/><path d="m6.5 2c-.27614 0-.5.22386-.5.5v.5h-.5c-.82843 0-1.5.67157-1.5 1.5v12c0 .8284.67157 1.5 1.5 1.5h6c.1326 0 .2598-.0527.3536-.1464l4-4c.0937-.0938.1464-.221.1464-.3536v-9c0-.82843-.6716-1.5-1.5-1.5h-.5v-.5c0-.27614-.2239-.5-.5-.5s-.5.22386-.5.5v.5h-2.5v-.5c0-.27614-.2239-.5-.5-.5-.27614 0-.5.22386-.5.5v.5h-2.5v-.5c0-.27614-.22386-.5-.5-.5zm8 2c.2761 0 .5.22386.5.5v8.5h-2.5c-.8284 0-1.5.6716-1.5 1.5v2.5h-5.5c-.27614 0-.5-.2239-.5-.5v-12c0-.27614.22386-.5.5-.5zm-.2071 10-2.2929 2.2929v-1.7929c0-.2761.2239-.5.5-.5z"/></g></svg>