<svg width="130" height="25" viewBox="0 0 130 25" fill="none" xmlns="http://www.w3.org/2000/svg">
<path d="M70.7821 22.5081C70.5306 22.5081 70.2803 22.4275 70.0649 22.2669L65 18.4748L59.9351 22.2669C59.5036 22.5893 58.9246 22.5893 58.4956 22.2617C58.0667 21.9374 57.8861 21.3615 58.0467 20.8356L59.9357 14.4707L54.9163 10.7779C54.4898 10.4497 54.3124 9.87246 54.4755 9.34595C54.6398 8.82074 55.108 8.46388 55.6373 8.45998L61.854 8.45023L63.8332 2.24324C64.0001 1.71738 64.4702 1.36377 65 1.36377C65.5298 1.36377 65.9999 1.71803 66.1674 2.24324L68.113 8.45023L74.3615 8.45998C74.8926 8.46388 75.3614 8.82139 75.5239 9.34595C75.6876 9.87246 75.5102 10.4497 75.0831 10.7779L70.0636 14.4707L71.9526 20.8356C72.1145 21.3615 71.9321 21.9374 71.5044 22.2617C71.2883 22.4268 71.0355 22.5081 70.7821 22.5081Z" fill="#FFAC33"/>
<path d="M16.989 23.2882C16.7375 23.2882 16.4872 23.2076 16.2718 23.0471L11.2069 19.2549L6.142 23.0471C5.71053 23.3695 5.13151 23.3695 4.70254 23.0419C4.27356 22.7175 4.093 22.1416 4.25364 21.6158L6.14262 15.2508L1.12318 11.5581C0.696693 11.2298 0.51925 10.6526 0.682373 10.1261C0.846741 9.60089 1.31494 9.24403 1.84415 9.24013L8.06087 9.23038L10.0401 3.02339C10.207 2.49753 10.6771 2.14392 11.2069 2.14392C11.7367 2.14392 12.2068 2.49818 12.3743 3.02339L14.3199 9.23038L20.5684 9.24013C21.0995 9.24403 21.5683 9.60154 21.7308 10.1261C21.8945 10.6526 21.7171 11.2298 21.29 11.5581L16.2705 15.2508L18.1595 21.6158C18.3214 22.1416 18.139 22.7175 17.7113 23.0419C17.4952 23.207 17.2424 23.2882 16.989 23.2882Z" fill="#FFAC33"/>
<path d="M124.575 23.2882C124.324 23.2882 124.073 23.2076 123.858 23.0471L118.793 19.2549L113.728 23.0471C113.297 23.3695 112.718 23.3695 112.289 23.0419C111.86 22.7175 111.679 22.1416 111.84 21.6158L113.729 15.2508L108.709 11.5581C108.283 11.2298 108.105 10.6526 108.269 10.1261C108.433 9.60089 108.901 9.24403 109.43 9.24013L115.647 9.23038L117.626 3.02339C117.793 2.49753 118.263 2.14392 118.793 2.14392C119.323 2.14392 119.793 2.49818 119.961 3.02339L121.906 9.23038L128.155 9.24013C128.686 9.24403 129.155 9.60154 129.317 10.1261C129.481 10.6526 129.303 11.2298 128.876 11.5581L123.857 15.2508L125.746 21.6158C125.908 22.1416 125.725 22.7175 125.297 23.0419C125.081 23.207 124.829 23.2882 124.575 23.2882Z" fill="#FFAC33"/>
<path d="M97.6787 23.2882C97.4271 23.2882 97.1769 23.2076 96.9614 23.0471L91.8965 19.2549L86.8317 23.0471C86.4002 23.3695 85.8212 23.3695 85.3922 23.0419C84.9632 22.7175 84.7827 22.1416 84.9433 21.6158L86.8323 15.2508L81.8128 11.5581C81.3863 11.2298 81.2089 10.6526 81.372 10.1261C81.5364 9.60089 82.0046 9.24403 82.5338 9.24013L88.7505 9.23038L90.7298 3.02339C90.8966 2.49753 91.3667 2.14392 91.8965 2.14392C92.4264 2.14392 92.8965 2.49818 93.0639 3.02339L95.0096 9.23038L101.258 9.24013C101.789 9.24403 102.258 9.60154 102.42 10.1261C102.584 10.6526 102.407 11.2298 101.98 11.5581L96.9602 15.2508L98.8492 21.6158C99.0111 22.1416 98.8286 22.7175 98.4009 23.0419C98.1849 23.207 97.9321 23.2882 97.6787 23.2882Z" fill="#FFAC33"/>
<path d="M43.8856 22.5081C43.6341 22.5081 43.3838 22.4275 43.1683 22.2669L38.1035 18.4748L33.0386 22.2669C32.6071 22.5893 32.0281 22.5893 31.5991 22.2617C31.1701 21.9374 30.9896 21.3615 31.1502 20.8356L33.0392 14.4707L28.0197 10.7779C27.5933 10.4497 27.4158 9.87246 27.5789 9.34595C27.7433 8.82074 28.2115 8.46388 28.7407 8.45998L34.9574 8.45023L36.9367 2.24324C37.1035 1.71738 37.5736 1.36377 38.1035 1.36377C38.6333 1.36377 39.1034 1.71803 39.2708 2.24324L41.2165 8.45023L47.465 8.45998C47.996 8.46388 48.4649 8.82139 48.6274 9.34595C48.7911 9.87246 48.6137 10.4497 48.1866 10.7779L43.1671 14.4707L45.0561 20.8356C45.218 21.3615 45.0355 21.9374 44.6078 22.2617C44.3918 22.4268 44.139 22.5081 43.8856 22.5081Z" fill="#FFAC33"/>
</svg>
